<?xml version="1.0" standalone="no"?>
<!DOCTYPE svg PUBLIC "-//W3C//DTD SVG 20010904//EN"
 "http://www.w3.org/TR/2001/REC-SVG-20010904/DTD/svg10.dtd">
<svg version="1.0" xmlns="http://www.w3.org/2000/svg"
 width="692.000000pt" height="1902.000000pt" viewBox="0 0 692.000000 1902.000000"
 preserveAspectRatio="xMidYMid meet">

<g transform="translate(0.000000,1902.000000) scale(0.100000,-0.100000)"
fill="rgb(29, 54, 92)" stroke="none">
<path d="M1865 19014 c-169 -20 -228 -31 -341 -59 -342 -87 -633 -250 -892
-500 -348 -334 -562 -774 -611 -1254 -15 -144 -15 -15236 0 -15382 76 -754
570 -1405 1275 -1682 109 -43 281 -90 419 -114 93 -17 213 -18 1750 -18 1537
0 1657 1 1750 18 433 77 780 250 1083 542 347 334 563 776 611 1254 15 146 15
15238 0 15382 -77 755 -569 1405 -1275 1682 -105 42 -277 89 -414 114 -88 16
-220 17 -1710 19 -888 1 -1628 0 -1645 -2z m3345 -186 c428 -91 735 -253 1015
-537 l69 -71 -2829 0 -2829 0 69 71 c314 318 685 496 1150 553 17 2 761 2
1655 1 1440 -1 1634 -3 1700 -17z m1227 -798 c29 -41 81 -133 117 -205 101
-204 161 -407 185 -627 8 -68 11 -2337 11 -7547 l0 -7450 -1057 -4 c-1102 -3
-1107 -4 -1281 -48 -243 -61 -409 -217 -466 -436 -29 -110 -36 -290 -36 -920
l0 -623 -475 0 -475 0 0 407 c0 364 -2 408 -17 425 -15 17 -43 18 -459 18
-263 0 -474 4 -520 11 -268 37 -471 183 -592 424 -44 89 -62 157 -72 279 -14
171 -56 239 -177 287 -57 23 -66 23 -500 27 l-443 3 0 7525 c0 5264 3 7554 11
7622 23 209 82 417 174 607 49 101 135 245 173 288 14 16 164 17 2931 15
l2916 -3 52 -75z m313 -16025 c0 -260 -67 -544 -185 -790 -233 -484 -682 -854
-1195 -985 -204 -52 -203 -52 -791 -57 l-557 -4 5 688 c5 753 8 804 62 918 38
81 114 163 189 203 103 55 263 91 462 105 25 2 487 4 1028 5 l982 2 0 -85z
m-5640 -100 c46 -27 71 -80 73 -157 l2 -62 -444 -154 c-348 -121 -445 -151
-452 -141 -28 46 -88 323 -104 477 l-6 63 448 -3 c429 -3 449 -4 483 -23z
m123 -414 c15 -44 50 -116 76 -160 l49 -80 -310 -277 -310 -276 -40 38 c-99
96 -231 280 -311 433 -40 78 -47 97 -35 104 15 10 827 295 843 296 6 1 23 -35
38 -78z m327 -427 c25 -17 70 -44 100 -59 30 -15 56 -28 58 -30 1 -1 -72 -155
-162 -341 -159 -327 -166 -339 -192 -337 -68 5 -392 191 -499 286 l-40 36 25
25 c14 14 151 137 305 275 l280 249 40 -37 c22 -20 60 -51 85 -67z m370 -144
c36 -5 118 -10 183 -10 l117 0 0 -371 0 -372 -212 6 c-117 3 -240 10 -273 16
-113 22 -245 55 -245 62 0 4 41 92 91 196 50 103 125 257 165 341 60 125 77
152 91 148 10 -3 47 -10 83 -16z m920 -380 l0 -370 -255 0 -255 0 0 370 0 370
255 0 255 0 0 -370z"/>
<path d="M914 16949 c-10 -17 13 -36 27 -22 12 12 4 33 -11 33 -5 0 -12 -5
-16 -11z"/>
<path d="M2164 16949 c-10 -17 13 -36 27 -22 12 12 4 33 -11 33 -5 0 -12 -5
-16 -11z"/>
<path d="M4714 16949 c-10 -17 13 -36 27 -22 12 12 4 33 -11 33 -5 0 -12 -5
-16 -11z"/>
<path d="M5964 16949 c-10 -17 13 -36 27 -22 12 12 4 33 -11 33 -5 0 -12 -5
-16 -11z"/>
<path d="M915 15650 c-11 -17 5 -32 21 -19 7 6 11 15 8 20 -7 12 -21 11 -29
-1z"/>
<path d="M4715 15650 c-11 -17 5 -32 21 -19 7 6 11 15 8 20 -7 12 -21 11 -29
-1z"/>
<path d="M5966 15651 c-3 -5 1 -14 8 -20 16 -13 32 2 21 19 -8 12 -22 13 -29
1z"/>
<path d="M2165 15641 c-3 -5 -1 -12 5 -16 12 -7 30 2 30 16 0 12 -27 12 -35 0z"/>
<path d="M4715 14350 c-11 -17 5 -32 21 -19 7 6 11 15 8 20 -7 12 -21 11 -29
-1z"/>
<path d="M5966 14351 c-3 -5 1 -14 8 -20 16 -13 32 2 21 19 -8 12 -22 13 -29
1z"/>
<path d="M920 14335 c0 -8 7 -15 15 -15 8 0 15 7 15 15 0 8 -7 15 -15 15 -8 0
-15 -7 -15 -15z"/>
<path d="M2165 14341 c-3 -5 -1 -12 5 -16 12 -7 30 2 30 16 0 12 -27 12 -35 0z"/>
<path d="M4715 13090 c-11 -17 5 -32 21 -19 7 6 11 15 8 20 -7 12 -21 11 -29
-1z"/>
<path d="M5966 13091 c-3 -5 1 -14 8 -20 16 -13 32 2 21 19 -8 12 -22 13 -29
1z"/>
<path d="M920 13075 c0 -8 7 -15 15 -15 8 0 15 7 15 15 0 8 -7 15 -15 15 -8 0
-15 -7 -15 -15z"/>
<path d="M2165 13081 c-3 -5 -1 -12 5 -16 12 -7 30 2 30 16 0 12 -27 12 -35 0z"/>
<path d="M4714 11789 c-3 -6 -1 -16 5 -22 9 -9 14 -8 21 3 9 15 4 30 -10 30
-5 0 -12 -5 -16 -11z"/>
<path d="M5966 11792 c-2 -4 -1 -14 4 -22 7 -11 12 -12 21 -3 6 6 8 16 5 22
-8 13 -23 14 -30 3z"/>
<path d="M920 11775 c0 -8 7 -15 15 -15 8 0 15 7 15 15 0 8 -7 15 -15 15 -8 0
-15 -7 -15 -15z"/>
<path d="M2165 11781 c-3 -5 -1 -12 5 -16 12 -7 30 2 30 16 0 12 -27 12 -35 0z"/>
<path d="M4714 10529 c-3 -6 -1 -16 5 -22 9 -9 14 -8 21 3 9 15 4 30 -10 30
-5 0 -12 -5 -16 -11z"/>
<path d="M5966 10532 c-2 -4 -1 -14 4 -22 7 -11 12 -12 21 -3 6 6 8 16 5 22
-8 13 -23 14 -30 3z"/>
<path d="M920 10515 c0 -8 7 -15 15 -15 8 0 15 7 15 15 0 8 -7 15 -15 15 -8 0
-15 -7 -15 -15z"/>
<path d="M2165 10521 c-3 -5 -1 -12 5 -16 12 -7 30 2 30 16 0 12 -27 12 -35 0z"/>
<path d="M4715 9230 c-7 -12 2 -30 16 -30 5 0 9 9 9 20 0 21 -15 27 -25 10z"/>
<path d="M5964 9229 c-10 -17 13 -36 27 -22 12 12 4 33 -11 33 -5 0 -12 -5
-16 -11z"/>
<path d="M920 9215 c0 -8 7 -15 15 -15 8 0 15 7 15 15 0 8 -7 15 -15 15 -8 0
-15 -7 -15 -15z"/>
<path d="M2165 9221 c-3 -5 -1 -12 5 -16 12 -7 30 2 30 16 0 12 -27 12 -35 0z"/>
<path d="M926 7973 c-12 -12 -6 -33 9 -33 8 0 15 6 15 14 0 17 -14 28 -24 19z"/>
<path d="M4714 7969 c-8 -14 11 -33 25 -25 11 7 4 36 -9 36 -5 0 -12 -5 -16
-11z"/>
<path d="M5967 7965 c-8 -18 11 -31 25 -17 11 11 3 32 -12 32 -4 0 -10 -7 -13
-15z"/>
<path d="M2165 7961 c-3 -5 -1 -12 5 -16 12 -7 30 2 30 16 0 12 -27 12 -35 0z"/>
<path d="M926 6673 c-12 -12 -6 -33 9 -33 8 0 15 6 15 14 0 17 -14 28 -24 19z"/>
<path d="M4714 6669 c-8 -14 11 -33 25 -25 11 7 4 36 -9 36 -5 0 -12 -5 -16
-11z"/>
<path d="M5967 6665 c-8 -18 11 -31 25 -17 11 11 3 32 -12 32 -4 0 -10 -7 -13
-15z"/>
<path d="M2165 6661 c-3 -5 -1 -12 5 -16 12 -7 30 2 30 16 0 12 -27 12 -35 0z"/>
<path d="M924 5406 c-8 -22 3 -33 18 -18 9 9 9 15 0 24 -9 9 -13 7 -18 -6z"/>
<path d="M2171 5406 c-9 -10 -9 -16 -1 -21 17 -10 37 12 24 25 -8 8 -15 6 -23
-4z"/>
<path d="M4715 5410 c-10 -17 12 -37 25 -24 8 8 6 15 -4 23 -10 9 -16 9 -21 1z"/>
<path d="M5971 5406 c-9 -10 -9 -16 -1 -21 17 -10 37 12 24 25 -8 8 -15 6 -23
-4z"/>
<path d="M924 4106 c-8 -22 3 -33 18 -18 9 9 9 15 0 24 -9 9 -13 7 -18 -6z"/>
<path d="M2171 4106 c-9 -10 -9 -16 -1 -21 17 -10 37 12 24 25 -8 8 -15 6 -23
-4z"/>
<path d="M4715 4110 c-10 -17 12 -37 25 -24 8 8 6 15 -4 23 -10 9 -16 9 -21 1z"/>
<path d="M5971 4106 c-9 -10 -9 -16 -1 -21 17 -10 37 12 24 25 -8 8 -15 6 -23
-4z"/>

<path d="M4715 2850 c-10 -17 12 -37 25 -24 8 8 6 15 -4 23 -10 9 -16 9 -21 1z"/>
<path d="M5971 2846 c-9 -10 -9 -16 -1 -21 17 -10 37 12 24 25 -8 8 -15 6 -23
-4z"/>
</g>
</svg>
