<?xml version="1.0" standalone="no"?>
<!DOCTYPE svg PUBLIC "-//W3C//DTD SVG 20010904//EN"
 "http://www.w3.org/TR/2001/REC-SVG-20010904/DTD/svg10.dtd">
<svg version="1.0" xmlns="http://www.w3.org/2000/svg"
 width="692.000000pt" height="1902.000000pt" viewBox="0 0 692.000000 1902.000000"
 preserveAspectRatio="xMidYMid meet">

<g transform="translate(0.000000,1902.000000) scale(0.100000,-0.100000)"
fill="rgb(29, 54, 92)" stroke="none">
<path d="M1865 19014 c-169 -20 -228 -31 -341 -59 -342 -87 -633 -250 -892
-500 -348 -334 -562 -774 -611 -1254 -15 -144 -15 -15236 0 -15382 76 -754
570 -1405 1275 -1682 109 -43 281 -90 419 -114 93 -17 213 -18 1750 -18 1537
0 1657 1 1750 18 433 77 780 250 1083 542 347 334 563 776 611 1254 15 146 15
15238 0 15382 -77 755 -569 1405 -1275 1682 -105 42 -277 89 -414 114 -88 16
-220 17 -1710 19 -888 1 -1628 0 -1645 -2z m935 -954 c0 -498 -4 -827 -11
-887 -32 -292 -152 -444 -407 -516 -76 -21 -86 -21 -1139 -25 l-1063 -3 0 236
c0 130 5 279 11 333 68 619 434 1154 991 1446 201 106 418 170 673 200 17 1
236 4 488 5 l457 1 0 -790z m2410 768 c426 -90 735 -253 1015 -537 l69 -71
-1023 0 c-939 0 -1026 -1 -1043 -17 -22 -20 -23 -51 -1 -75 15 -17 55 -18 841
-18 l825 0 34 -37 c110 -123 267 -406 332 -598 60 -178 63 -203 68 -557 l5
-328 -1043 0 c-956 0 -1044 -1 -1061 -17 -22 -20 -23 -51 -1 -75 15 -17 68
-18 1270 -18 l1253 0 0 -5305 0 -5305 -1145 0 c-1132 0 -1145 0 -1165 -20 -24
-24 -25 -48 -4 -78 l15 -22 940 0 939 0 0 -995 0 -995 -939 0 -940 0 -15 -22
c-21 -30 -20 -54 4 -78 20 -20 33 -20 1165 -20 l1145 0 0 -860 c0 -886 -3
-969 -42 -1150 -144 -676 -675 -1231 -1338 -1400 -218 -56 -152 -53 -1322 -57
l-1088 -4 0 490 c0 472 1 491 21 538 48 112 52 148 56 536 4 340 3 370 -13
388 -21 24 -56 25 -77 2 -13 -15 -16 -70 -20 -368 -5 -367 -12 -429 -56 -529
-10 -24 -38 -65 -60 -89 -87 -94 -187 -111 -594 -104 -324 5 -358 11 -507 84
-78 39 -110 62 -181 133 -146 145 -212 284 -228 478 -14 171 -59 250 -170 294
-55 22 -67 23 -504 26 l-447 3 0 7234 0 7234 1077 3 1078 3 79 23 c250 70 395
218 468 477 22 80 23 83 26 953 l3 873 1112 -4 c962 -3 1122 -6 1187 -19z
m1227 -798 c70 -100 173 -311 216 -440 77 -231 97 -387 97 -745 l0 -255 -154
0 -154 0 -5 338 c-5 374 -8 401 -82 612 -47 133 -168 370 -245 478 -33 46 -60
85 -60 88 0 2 75 3 167 2 l168 -3 52 -75z m313 -13275 l0 -995 -155 0 -155 0
0 995 0 995 155 0 155 0 0 -995z m-5720 -2825 c110 -18 151 -65 153 -177 l2
-67 -444 -154 c-348 -121 -445 -151 -452 -141 -29 47 -89 327 -104 482 l-7 67
394 0 c219 0 422 -5 458 -10z m196 -412 c21 -65 67 -159 105 -215 16 -23 29
-44 29 -46 0 -2 -140 -129 -311 -282 l-311 -277 -40 38 c-99 96 -231 280 -311
433 -40 78 -47 97 -35 104 17 11 828 295 845 296 6 1 19 -23 29 -51z m272
-398 c31 -28 94 -70 139 -93 46 -23 83 -45 83 -49 0 -3 -74 -159 -164 -345
-159 -326 -166 -338 -192 -336 -68 5 -392 191 -499 286 l-40 36 25 25 c32 32
584 525 588 526 2 0 29 -23 60 -50z m432 -190 c36 -5 118 -10 183 -10 l117 0
0 -376 0 -377 -212 6 c-117 3 -240 10 -273 16 -115 22 -245 55 -245 63 0 4 75
163 167 352 126 261 171 345 183 341 8 -2 44 -9 80 -15z m920 -390 l0 -370
-255 0 -255 0 0 370 0 370 255 0 255 0 0 -370z"/>
<path d="M915 15650 c-11 -17 5 -32 21 -19 7 6 11 15 8 20 -7 12 -21 11 -29
-1z"/>
<path d="M4715 15650 c-11 -17 5 -32 21 -19 7 6 11 15 8 20 -7 12 -21 11 -29
-1z"/>
<path d="M5966 15651 c-3 -5 1 -14 8 -20 16 -13 32 2 21 19 -8 12 -22 13 -29
1z"/>
<path d="M2165 15641 c-3 -5 -1 -12 5 -16 12 -7 30 2 30 16 0 12 -27 12 -35 0z"/>
<path d="M4715 14350 c-11 -17 5 -32 21 -19 7 6 11 15 8 20 -7 12 -21 11 -29
-1z"/>
<path d="M5966 14351 c-3 -5 1 -14 8 -20 16 -13 32 2 21 19 -8 12 -22 13 -29
1z"/>
<path d="M920 14335 c0 -8 7 -15 15 -15 8 0 15 7 15 15 0 8 -7 15 -15 15 -8 0
-15 -7 -15 -15z"/>
<path d="M2165 14341 c-3 -5 -1 -12 5 -16 12 -7 30 2 30 16 0 12 -27 12 -35 0z"/>
<path d="M4715 13090 c-11 -17 5 -32 21 -19 7 6 11 15 8 20 -7 12 -21 11 -29
-1z"/>
<path d="M5966 13091 c-3 -5 1 -14 8 -20 16 -13 32 2 21 19 -8 12 -22 13 -29
1z"/>
<path d="M920 13075 c0 -8 7 -15 15 -15 8 0 15 7 15 15 0 8 -7 15 -15 15 -8 0
-15 -7 -15 -15z"/>
<path d="M2165 13081 c-3 -5 -1 -12 5 -16 12 -7 30 2 30 16 0 12 -27 12 -35 0z"/>
<path d="M4714 11789 c-3 -6 -1 -16 5 -22 9 -9 14 -8 21 3 9 15 4 30 -10 30
-5 0 -12 -5 -16 -11z"/>
<path d="M5966 11792 c-2 -4 -1 -14 4 -22 7 -11 12 -12 21 -3 6 6 8 16 5 22
-8 13 -23 14 -30 3z"/>
<path d="M920 11775 c0 -8 7 -15 15 -15 8 0 15 7 15 15 0 8 -7 15 -15 15 -8 0
-15 -7 -15 -15z"/>
<path d="M2165 11781 c-3 -5 -1 -12 5 -16 12 -7 30 2 30 16 0 12 -27 12 -35 0z"/>
<path d="M4714 10529 c-3 -6 -1 -16 5 -22 9 -9 14 -8 21 3 9 15 4 30 -10 30
-5 0 -12 -5 -16 -11z"/>
<path d="M5966 10532 c-2 -4 -1 -14 4 -22 7 -11 12 -12 21 -3 6 6 8 16 5 22
-8 13 -23 14 -30 3z"/>
<path d="M920 10515 c0 -8 7 -15 15 -15 8 0 15 7 15 15 0 8 -7 15 -15 15 -8 0
-15 -7 -15 -15z"/>
<path d="M2165 10521 c-3 -5 -1 -12 5 -16 12 -7 30 2 30 16 0 12 -27 12 -35 0z"/>
<path d="M4715 9230 c-7 -12 2 -30 16 -30 5 0 9 9 9 20 0 21 -15 27 -25 10z"/>
<path d="M5964 9229 c-10 -17 13 -36 27 -22 12 12 4 33 -11 33 -5 0 -12 -5
-16 -11z"/>
<path d="M920 9215 c0 -8 7 -15 15 -15 8 0 15 7 15 15 0 8 -7 15 -15 15 -8 0
-15 -7 -15 -15z"/>
<path d="M2165 9221 c-3 -5 -1 -12 5 -16 12 -7 30 2 30 16 0 12 -27 12 -35 0z"/>
<path d="M926 7973 c-12 -12 -6 -33 9 -33 8 0 15 6 15 14 0 17 -14 28 -24 19z"/>
<path d="M4714 7969 c-8 -14 11 -33 25 -25 11 7 4 36 -9 36 -5 0 -12 -5 -16
-11z"/>
<path d="M5967 7965 c-8 -18 11 -31 25 -17 11 11 3 32 -12 32 -4 0 -10 -7 -13
-15z"/>
<path d="M2165 7961 c-3 -5 -1 -12 5 -16 12 -7 30 2 30 16 0 12 -27 12 -35 0z"/>
<path d="M926 6673 c-12 -12 -6 -33 9 -33 8 0 15 6 15 14 0 17 -14 28 -24 19z"/>
<path d="M4714 6669 c-8 -14 11 -33 25 -25 11 7 4 36 -9 36 -5 0 -12 -5 -16
-11z"/>
<path d="M5967 6665 c-8 -18 11 -31 25 -17 11 11 3 32 -12 32 -4 0 -10 -7 -13
-15z"/>
<path d="M2165 6661 c-3 -5 -1 -12 5 -16 12 -7 30 2 30 16 0 12 -27 12 -35 0z"/>
<path d="M924 5406 c-8 -22 3 -33 18 -18 9 9 9 15 0 24 -9 9 -13 7 -18 -6z"/>
<path d="M2171 5406 c-9 -10 -9 -16 -1 -21 17 -10 37 12 24 25 -8 8 -15 6 -23
-4z"/>
<path d="M924 4106 c-8 -22 3 -33 18 -18 9 9 9 15 0 24 -9 9 -13 7 -18 -6z"/>
<path d="M2171 4106 c-9 -10 -9 -16 -1 -21 17 -10 37 12 24 25 -8 8 -15 6 -23
-4z"/>
<path d="M924 2846 c-8 -22 3 -33 18 -18 9 9 9 15 0 24 -9 9 -13 7 -18 -6z"/>
<path d="M2171 2846 c-9 -10 -9 -16 -1 -21 17 -10 37 12 24 25 -8 8 -15 6 -23
-4z"/>
<path d="M4715 2850 c-10 -17 12 -37 25 -24 8 8 6 15 -4 23 -10 9 -16 9 -21 1z"/>
<path d="M5971 2846 c-9 -10 -9 -16 -1 -21 17 -10 37 12 24 25 -8 8 -15 6 -23
-4z"/>
<path d="M4714 1549 c-10 -17 13 -36 27 -22 12 12 4 33 -11 33 -5 0 -12 -5
-16 -11z"/>
<path d="M5964 1549 c-10 -17 13 -36 27 -22 12 12 4 33 -11 33 -5 0 -12 -5
-16 -11z"/>
</g>
</svg>
