<?xml version="1.0" encoding="UTF-8" standalone="no"?>
<!DOCTYPE svg PUBLIC "-//W3C//DTD SVG 1.1//EN" "http://www.w3.org/Graphics/SVG/1.1/DTD/svg11.dtd">
<svg xmlns="http://www.w3.org/2000/svg" version="1.1" viewBox="0.00 0.00 1713.00 1223.00">
<g stroke-width="2.00" fill="none" stroke-linecap="butt">
<path stroke="#72a8d3" vector-effect="non-scaling-stroke" d="
  M 1713.00 147.92
  Q 1669.28 160.35 1623.00 164.43
  C 1572.03 168.93 1519.89 167.40 1469.99 157.47
  Q 1454.34 154.35 1437.39 149.56"
/>
<path stroke="#72a8d3" vector-effect="non-scaling-stroke" d="
  M 166.87 152.40
  Q 137.25 168.01 110.66 186.70
  C 95.32 197.48 81.23 209.23 67.30 221.75
  Q 62.80 225.80 59.44 227.17
  C 50.75 230.73 40.36 229.18 32.00 226.21
  Q 20.02 221.95 6.20 215.04
  Q 4.35 214.12 0.00 212.87"
/>
<path stroke="#72a8d3" vector-effect="non-scaling-stroke" d="
  M 1269.63 87.01
  C 1279.87 108.91 1288.73 130.86 1295.08 154.23
  Q 1316.20 232.05 1291.69 307.79
  C 1279.16 346.53 1258.59 381.65 1239.66 417.44
  Q 1232.66 430.70 1227.31 444.70
  Q 1224.07 453.19 1223.51 459.62
  C 1221.88 478.55 1230.88 498.13 1241.09 513.63
  Q 1255.64 535.72 1274.13 554.63
  Q 1275.47 556.01 1280.60 560.15
  Q 1280.79 560.30 1280.79 560.78"
/>
<path stroke="#5d9ed1" vector-effect="non-scaling-stroke" d="
  M 1280.79 560.78
  Q 1131.12 568.17 978.75 565.49
  Q 977.83 565.48 977.63 564.76"
/>
<path stroke="#5396cb" vector-effect="non-scaling-stroke" d="
  M 1713.00 515.91
  Q 1498.10 550.19 1280.79 560.78"
/>
<path stroke="#72a8d3" vector-effect="non-scaling-stroke" d="
  M 287.03 97.10
  C 245.77 143.80 221.35 202.58 218.56 265.00
  C 216.72 305.99 244.09 335.77 264.79 368.00
  Q 274.53 383.17 280.20 393.79
  C 293.53 418.72 294.95 447.81 288.74 475.25
  Q 283.29 499.30 271.65 522.00"
/>
<path stroke="#5396cb" vector-effect="non-scaling-stroke" d="
  M 271.65 522.00
  Q 209.22 518.37 164.25 518.94
  C 129.01 519.38 93.68 521.31 59.00 527.94
  C 41.60 531.26 23.57 536.55 7.70 544.47
  Q 3.87 546.37 0.00 548.20"
/>
<path stroke="#5d9ed1" vector-effect="non-scaling-stroke" d="
  M 752.35 556.49
  Q 752.03 557.04 751.50 557.01
  C 625.26 549.55 499.29 538.87 373.25 528.79
  Q 330.31 525.36 271.65 522.00"
/>
<path stroke="#1f7ec2" vector-effect="non-scaling-stroke" d="
  M 1713.00 915.08
  L 1679.91 930.53
  A 0.30 0.30 0.0 0 1 1679.48 930.23
  L 1684.51 868.32
  Q 1684.59 867.30 1683.83 867.99
  L 1626.53 919.97
  A 0.44 0.44 0.0 0 1 1625.82 919.78
  L 1596.24 833.99
  Q 1595.88 832.97 1595.66 834.03
  L 1575.62 930.14
  A 0.37 0.37 0.0 0 1 1575.07 930.38
  L 1471.28 869.66
  Q 1469.81 868.80 1470.90 870.10
  L 1544.58 957.41
  Q 1544.95 957.84 1544.38 957.90
  C 1541.49 958.19 1538.96 958.10 1535.92 957.56
  Q 1471.36 945.94 1407.27 934.39
  Q 1404.63 933.91 1407.01 935.16
  L 1461.17 963.47
  A 0.30 0.30 0.0 0 1 1461.05 964.03
  L 1270.52 978.89
  Q 1269.58 978.96 1270.29 978.33
  L 1305.31 947.27
  Q 1306.67 946.06 1304.98 946.73
  L 1228.50 976.91
  A 0.36 0.35 83.5 0 1 1228.02 976.52
  L 1234.21 934.23
  Q 1234.37 933.15 1233.52 933.83
  L 1191.59 967.17
  A 0.42 0.42 0.0 0 1 1190.92 966.95
  L 1174.26 906.27
  Q 1173.95 905.17 1173.65 906.27
  L 1164.64 938.95"
/>
<path stroke="#5396cb" vector-effect="non-scaling-stroke" d="
  M 1164.64 938.95
  Q 1156.45 926.74 1149.04 914.08
  Q 1148.21 912.66 1147.35 910.66
  C 1144.85 904.84 1141.85 899.55 1138.90 893.97
  C 1135.80 888.10 1134.47 881.40 1131.68 875.20
  Q 1129.63 870.65 1128.69 866.93
  C 1126.74 859.20 1124.34 851.56 1123.36 843.62
  C 1122.56 837.08 1121.47 830.55 1121.31 824.08
  C 1121.17 818.29 1120.94 812.67 1121.56 806.77
  C 1122.21 800.52 1122.51 793.96 1123.50 788.21
  C 1126.62 770.20 1130.89 755.82 1136.36 740.40
  Q 1145.38 715.00 1148.56 704.26
  C 1151.52 694.27 1153.80 681.24 1152.56 670.84
  C 1151.41 661.21 1147.15 651.89 1141.18 645.03
  Q 1130.26 632.50 1114.93 624.10
  Q 1092.37 611.73 1068.04 603.34
  C 1021.59 587.31 973.36 575.20 925.46 564.34"
/>
<path stroke="#5396cb" vector-effect="non-scaling-stroke" d="
  M 781.28 558.56
  Q 780.81 558.90 780.87 559.25
  A 0.98 0.91 5.7 0 0 781.48 559.94
  Q 804.26 568.44 825.63 580.30
  C 842.66 589.76 870.36 609.46 862.16 633.02
  C 859.22 641.47 852.77 649.03 845.99 654.77
  C 826.43 671.30 803.77 684.32 781.38 696.59
  C 694.53 744.19 601.85 794.17 547.41 880.97
  C 538.91 894.53 532.32 908.96 525.77 923.51
  Q 519.30 937.89 513.09 962.05
  C 512.73 963.47 512.45 965.91 511.66 967.77"
/>
<path stroke="#1f7ec2" vector-effect="non-scaling-stroke" d="
  M 511.66 967.77
  L 467.42 925.82
  Q 466.04 924.51 466.82 926.25
  L 502.24 1005.29
  Q 502.53 1005.94 501.90 1005.61
  L 450.73 978.94
  Q 448.90 977.99 450.40 979.40
  L 489.36 1016.17
  Q 489.92 1016.69 489.15 1016.67
  C 387.62 1013.72 286.24 1005.68 185.30 994.86
  A 0.28 0.28 0.0 0 1 185.12 994.40
  L 211.40 963.40
  Q 212.26 962.39 211.01 962.82
  L 145.26 985.28
  A 0.40 0.40 0.0 0 1 144.74 984.86
  Q 151.21 928.37 157.69 871.75
  Q 157.73 871.38 157.68 871.11
  Q 157.56 870.55 157.28 871.05
  L 99.85 972.63
  Q 99.10 973.95 98.80 972.46
  L 84.85 904.37
  Q 84.42 902.28 84.19 904.40
  L 75.68 980.22
  A 0.31 0.31 0.0 0 1 75.15 980.40
  L 0.00 901.62"
/>
<path stroke="#3489c5" vector-effect="non-scaling-stroke" d="
  M 1164.64 938.95
  L 1155.45 972.06
  A 0.29 0.28 -64.8 0 1 1155.02 972.22
  L 1085.91 925.60
  Q 1084.27 924.49 1085.44 926.08
  L 1132.03 988.99
  Q 1132.34 989.42 1131.83 989.53
  Q 1129.27 990.10 1127.24 989.60
  Q 1082.03 978.44 1037.48 967.42
  Q 1035.88 967.03 1037.29 967.88
  L 1079.04 993.22
  Q 1079.54 993.53 1078.96 993.57
  C 923.16 1005.59 766.90 1016.23 610.60 1017.85
  A 0.37 0.36 0.8 0 1 610.23 1017.48
  L 610.68 980.72
  Q 610.69 979.94 610.03 980.35
  L 567.97 1006.61
  Q 567.68 1006.80 567.60 1006.46
  L 553.81 944.06
  Q 553.48 942.55 552.86 943.97
  L 533.68 987.91
  Q 533.46 988.43 533.05 988.04
  L 511.66 967.77"
/>
<path stroke="#5396cb" vector-effect="non-scaling-stroke" d="
  M 942.79 592.85
  C 948.69 595.19 957.44 594.28 963.67 594.19
  Q 964.89 594.18 963.73 593.77
  Q 948.84 588.52 933.71 583.23
  C 916.30 577.14 899.04 572.85 881.19 569.46
  C 875.88 568.46 870.65 568.77 865.26 568.81
  Q 865.06 568.81 865.08 569.01
  Q 865.09 569.14 865.09 569.30
  Q 865.08 569.48 865.26 569.52
  C 880.87 573.29 897.07 576.62 912.03 581.62
  Q 927.56 586.82 942.79 592.85"
/>
<path stroke="#5396cb" vector-effect="non-scaling-stroke" d="
  M 979.52 684.36
  Q 979.16 684.77 979.71 684.75
  L 1018.56 683.52
  Q 1019.31 683.50 1019.72 682.87
  C 1024.83 674.97 1028.93 665.37 1029.13 655.67
  C 1029.34 645.23 1023.74 636.23 1016.49 628.91
  C 1015.43 627.84 1014.93 627.96 1013.49 627.97
  Q 1003.20 628.04 996.25 628.63
  Q 995.68 628.67 995.97 629.16
  Q 999.55 635.25 1000.65 642.21
  C 1001.05 644.66 1000.62 646.94 1000.39 649.44
  C 999.66 657.47 994.04 666.69 989.13 672.94
  Q 985.27 677.86 979.52 684.36"
/>
<path stroke="#5396cb" vector-effect="non-scaling-stroke" d="
  M 821.29 858.07
  C 816.93 865.15 813.29 872.69 809.53 880.10
  C 804.85 889.34 801.14 898.89 797.27 908.56
  C 793.96 916.84 791.70 925.57 789.09 934.15
  A 0.58 0.58 0.0 0 0 789.66 934.90
  L 866.45 932.92
  Q 867.46 932.89 867.61 931.89
  C 868.87 923.07 869.94 914.62 872.26 905.86
  C 874.48 897.44 876.30 889.03 879.29 880.84
  C 882.35 872.46 885.08 864.13 888.83 856.05
  C 892.13 848.92 895.14 841.67 899.04 834.80
  C 903.00 827.83 906.81 820.70 911.06 814.16
  C 915.54 807.24 920.07 800.09 924.72 793.63
  Q 938.09 775.06 953.09 757.46
  A 0.23 0.22 19.6 0 0 952.91 757.09
  Q 929.24 757.40 905.50 758.16
  Q 904.19 758.20 903.42 758.92
  C 881.86 779.06 860.43 801.64 842.74 825.99
  C 838.01 832.51 833.22 838.96 828.94 845.78
  Q 825.09 851.91 821.29 858.07"
/>
<path stroke="#1f7ec2" vector-effect="non-scaling-stroke" d="
  M 0.00 973.77
  L 30.39 977.39
  Q 31.14 977.48 30.83 976.79
  L 0.00 906.99"
/>
</g>
<path fill="#7cb0d9" d="
  M 1713.00 20.13
  L 1713.00 147.92
  Q 1669.28 160.35 1623.00 164.43
  C 1572.03 168.93 1519.89 167.40 1469.99 157.47
  Q 1454.34 154.35 1437.39 149.56
  C 1486.69 140.13 1533.99 131.04 1575.75 104.20
  C 1608.07 83.42 1634.47 60.17 1666.14 41.66
  Q 1688.46 28.61 1713.00 20.13
  Z"
/>
<path fill="#7cb0d9" d="
  M 166.87 152.40
  Q 137.25 168.01 110.66 186.70
  C 95.32 197.48 81.23 209.23 67.30 221.75
  Q 62.80 225.80 59.44 227.17
  C 50.75 230.73 40.36 229.18 32.00 226.21
  Q 20.02 221.95 6.20 215.04
  Q 4.35 214.12 0.00 212.87
  L 0.00 39.24
  Q 22.26 55.83 44.13 72.12
  C 83.46 101.40 124.40 127.25 166.87 152.40
  Z"
/>
<path fill="#7cb0d9" d="
  M 1269.63 87.01
  C 1279.87 108.91 1288.73 130.86 1295.08 154.23
  Q 1316.20 232.05 1291.69 307.79
  C 1279.16 346.53 1258.59 381.65 1239.66 417.44
  Q 1232.66 430.70 1227.31 444.70
  Q 1224.07 453.19 1223.51 459.62
  C 1221.88 478.55 1230.88 498.13 1241.09 513.63
  Q 1255.64 535.72 1274.13 554.63
  Q 1275.47 556.01 1280.60 560.15
  Q 1280.79 560.30 1280.79 560.78
  Q 1131.12 568.17 978.75 565.49
  Q 977.83 565.48 977.63 564.76
  C 994.70 527.64 1014.91 491.54 1035.70 458.25
  Q 1064.03 412.87 1093.33 368.12
  C 1115.98 333.53 1137.91 298.22 1157.01 261.53
  Q 1178.37 220.50 1190.76 175.92
  Q 1194.95 160.86 1198.85 145.73
  C 1203.39 128.18 1209.70 108.18 1221.34 94.62
  C 1234.36 79.45 1252.29 79.85 1269.63 87.01
  Z"
/>
<path fill="#68a0cd" d="
  M 1269.63 87.01
  Q 1279.66 90.87 1288.98 95.72
  Q 1309.10 106.20 1329.42 116.28
  C 1362.66 132.77 1396.87 144.16 1433.54 149.66
  Q 1434.48 149.80 1435.46 149.71
  Q 1437.08 149.56 1437.39 149.56
  Q 1454.34 154.35 1469.99 157.47
  C 1519.89 167.40 1572.03 168.93 1623.00 164.43
  Q 1669.28 160.35 1713.00 147.92
  L 1713.00 515.91
  Q 1498.10 550.19 1280.79 560.78
  Q 1280.79 560.30 1280.60 560.15
  Q 1275.47 556.01 1274.13 554.63
  Q 1255.64 535.72 1241.09 513.63
  C 1230.88 498.13 1221.88 478.55 1223.51 459.62
  Q 1224.07 453.19 1227.31 444.70
  Q 1232.66 430.70 1239.66 417.44
  C 1258.59 381.65 1279.16 346.53 1291.69 307.79
  Q 1316.20 232.05 1295.08 154.23
  C 1288.73 130.86 1279.87 108.91 1269.63 87.01
  Z"
/>
<path fill="#68a0cd" d="
  M 287.03 97.10
  C 245.77 143.80 221.35 202.58 218.56 265.00
  C 216.72 305.99 244.09 335.77 264.79 368.00
  Q 274.53 383.17 280.20 393.79
  C 293.53 418.72 294.95 447.81 288.74 475.25
  Q 283.29 499.30 271.65 522.00
  Q 209.22 518.37 164.25 518.94
  C 129.01 519.38 93.68 521.31 59.00 527.94
  C 41.60 531.26 23.57 536.55 7.70 544.47
  Q 3.87 546.37 0.00 548.20
  L 0.00 212.87
  Q 4.35 214.12 6.20 215.04
  Q 20.02 221.95 32.00 226.21
  C 40.36 229.18 50.75 230.73 59.44 227.17
  Q 62.80 225.80 67.30 221.75
  C 81.23 209.23 95.32 197.48 110.66 186.70
  Q 137.25 168.01 166.87 152.40
  Q 178.67 147.50 192.70 138.69
  C 222.38 120.06 250.45 99.18 287.03 97.10
  Z"
/>
<path fill="#7cb0d9" d="
  M 287.03 97.10
  Q 319.57 95.87 348.86 114.91
  C 371.71 129.76 391.44 148.96 409.72 169.04
  Q 430.43 191.79 449.92 215.59
  Q 483.15 256.17 517.14 296.11
  Q 572.17 360.77 633.21 419.79
  C 657.90 443.66 682.90 467.30 706.42 492.33
  C 724.18 511.22 741.98 532.52 752.35 556.49
  Q 752.03 557.04 751.50 557.01
  C 625.26 549.55 499.29 538.87 373.25 528.79
  Q 330.31 525.36 271.65 522.00
  Q 283.29 499.30 288.74 475.25
  C 294.95 447.81 293.53 418.72 280.20 393.79
  Q 274.53 383.17 264.79 368.00
  C 244.09 335.77 216.72 305.99 218.56 265.00
  C 221.35 202.58 245.77 143.80 287.03 97.10
  Z"
/>
<path fill="#3e8bc8" d="
  M 1713.00 515.91
  L 1713.00 915.08
  L 1679.91 930.53
  A 0.30 0.30 0.0 0 1 1679.48 930.23
  L 1684.51 868.32
  Q 1684.59 867.30 1683.83 867.99
  L 1626.53 919.97
  A 0.44 0.44 0.0 0 1 1625.82 919.78
  L 1596.24 833.99
  Q 1595.88 832.97 1595.66 834.03
  L 1575.62 930.14
  A 0.37 0.37 0.0 0 1 1575.07 930.38
  L 1471.28 869.66
  Q 1469.81 868.80 1470.90 870.10
  L 1544.58 957.41
  Q 1544.95 957.84 1544.38 957.90
  C 1541.49 958.19 1538.96 958.10 1535.92 957.56
  Q 1471.36 945.94 1407.27 934.39
  Q 1404.63 933.91 1407.01 935.16
  L 1461.17 963.47
  A 0.30 0.30 0.0 0 1 1461.05 964.03
  L 1270.52 978.89
  Q 1269.58 978.96 1270.29 978.33
  L 1305.31 947.27
  Q 1306.67 946.06 1304.98 946.73
  L 1228.50 976.91
  A 0.36 0.35 83.5 0 1 1228.02 976.52
  L 1234.21 934.23
  Q 1234.37 933.15 1233.52 933.83
  L 1191.59 967.17
  A 0.42 0.42 0.0 0 1 1190.92 966.95
  L 1174.26 906.27
  Q 1173.95 905.17 1173.65 906.27
  L 1164.64 938.95
  Q 1156.45 926.74 1149.04 914.08
  Q 1148.21 912.66 1147.35 910.66
  C 1144.85 904.84 1141.85 899.55 1138.90 893.97
  C 1135.80 888.10 1134.47 881.40 1131.68 875.20
  Q 1129.63 870.65 1128.69 866.93
  C 1126.74 859.20 1124.34 851.56 1123.36 843.62
  C 1122.56 837.08 1121.47 830.55 1121.31 824.08
  C 1121.17 818.29 1120.94 812.67 1121.56 806.77
  C 1122.21 800.52 1122.51 793.96 1123.50 788.21
  C 1126.62 770.20 1130.89 755.82 1136.36 740.40
  Q 1145.38 715.00 1148.56 704.26
  C 1151.52 694.27 1153.80 681.24 1152.56 670.84
  C 1151.41 661.21 1147.15 651.89 1141.18 645.03
  Q 1130.26 632.50 1114.93 624.10
  Q 1092.37 611.73 1068.04 603.34
  C 1021.59 587.31 973.36 575.20 925.46 564.34
  Q 959.85 565.27 977.00 565.47
  Q 977.55 565.48 977.63 564.76
  Q 977.83 565.48 978.75 565.49
  Q 1131.12 568.17 1280.79 560.78
  Q 1498.10 550.19 1713.00 515.91
  Z"
/>
<path fill="#3e8bc8" d="
  M 271.65 522.00
  Q 330.31 525.36 373.25 528.79
  C 499.29 538.87 625.26 549.55 751.50 557.01
  Q 752.03 557.04 752.35 556.49
  Q 752.36 556.75 752.56 556.92
  Q 752.70 557.03 752.97 557.05
  Q 767.12 557.83 781.28 558.56
  Q 780.81 558.90 780.87 559.25
  A 0.98 0.91 5.7 0 0 781.48 559.94
  Q 804.26 568.44 825.63 580.30
  C 842.66 589.76 870.36 609.46 862.16 633.02
  C 859.22 641.47 852.77 649.03 845.99 654.77
  C 826.43 671.30 803.77 684.32 781.38 696.59
  C 694.53 744.19 601.85 794.17 547.41 880.97
  C 538.91 894.53 532.32 908.96 525.77 923.51
  Q 519.30 937.89 513.09 962.05
  C 512.73 963.47 512.45 965.91 511.66 967.77
  L 467.42 925.82
  Q 466.04 924.51 466.82 926.25
  L 502.24 1005.29
  Q 502.53 1005.94 501.90 1005.61
  L 450.73 978.94
  Q 448.90 977.99 450.40 979.40
  L 489.36 1016.17
  Q 489.92 1016.69 489.15 1016.67
  C 387.62 1013.72 286.24 1005.68 185.30 994.86
  A 0.28 0.28 0.0 0 1 185.12 994.40
  L 211.40 963.40
  Q 212.26 962.39 211.01 962.82
  L 145.26 985.28
  A 0.40 0.40 0.0 0 1 144.74 984.86
  Q 151.21 928.37 157.69 871.75
  Q 157.73 871.38 157.68 871.11
  Q 157.56 870.55 157.28 871.05
  L 99.85 972.63
  Q 99.10 973.95 98.80 972.46
  L 84.85 904.37
  Q 84.42 902.28 84.19 904.40
  L 75.68 980.22
  A 0.31 0.31 0.0 0 1 75.15 980.40
  L 0.00 901.62
  L 0.00 548.20
  Q 3.87 546.37 7.70 544.47
  C 23.57 536.55 41.60 531.26 59.00 527.94
  C 93.68 521.31 129.01 519.38 164.25 518.94
  Q 209.22 518.37 271.65 522.00
  Z"
/>
<path fill="#68a0cd" d="
  M 781.28 558.56
  Q 853.33 562.38 925.46 564.34
  C 973.36 575.20 1021.59 587.31 1068.04 603.34
  Q 1092.37 611.73 1114.93 624.10
  Q 1130.26 632.50 1141.18 645.03
  C 1147.15 651.89 1151.41 661.21 1152.56 670.84
  C 1153.80 681.24 1151.52 694.27 1148.56 704.26
  Q 1145.38 715.00 1136.36 740.40
  C 1130.89 755.82 1126.62 770.20 1123.50 788.21
  C 1122.51 793.96 1122.21 800.52 1121.56 806.77
  C 1120.94 812.67 1121.17 818.29 1121.31 824.08
  C 1121.47 830.55 1122.56 837.08 1123.36 843.62
  C 1124.34 851.56 1126.74 859.20 1128.69 866.93
  Q 1129.63 870.65 1131.68 875.20
  C 1134.47 881.40 1135.80 888.10 1138.90 893.97
  C 1141.85 899.55 1144.85 904.84 1147.35 910.66
  Q 1148.21 912.66 1149.04 914.08
  Q 1156.45 926.74 1164.64 938.95
  L 1155.45 972.06
  A 0.29 0.28 -64.8 0 1 1155.02 972.22
  L 1085.91 925.60
  Q 1084.27 924.49 1085.44 926.08
  L 1132.03 988.99
  Q 1132.34 989.42 1131.83 989.53
  Q 1129.27 990.10 1127.24 989.60
  Q 1082.03 978.44 1037.48 967.42
  Q 1035.88 967.03 1037.29 967.88
  L 1079.04 993.22
  Q 1079.54 993.53 1078.96 993.57
  C 923.16 1005.59 766.90 1016.23 610.60 1017.85
  A 0.37 0.36 0.8 0 1 610.23 1017.48
  L 610.68 980.72
  Q 610.69 979.94 610.03 980.35
  L 567.97 1006.61
  Q 567.68 1006.80 567.60 1006.46
  L 553.81 944.06
  Q 553.48 942.55 552.86 943.97
  L 533.68 987.91
  Q 533.46 988.43 533.05 988.04
  L 511.66 967.77
  C 512.45 965.91 512.73 963.47 513.09 962.05
  Q 519.30 937.89 525.77 923.51
  C 532.32 908.96 538.91 894.53 547.41 880.97
  C 601.85 794.17 694.53 744.19 781.38 696.59
  C 803.77 684.32 826.43 671.30 845.99 654.77
  C 852.77 649.03 859.22 641.47 862.16 633.02
  C 870.36 609.46 842.66 589.76 825.63 580.30
  Q 804.26 568.44 781.48 559.94
  A 0.98 0.91 5.7 0 1 780.87 559.25
  Q 780.81 558.90 781.28 558.56
  Z
  M 942.79 592.85
  C 948.69 595.19 957.44 594.28 963.67 594.19
  Q 964.89 594.18 963.73 593.77
  Q 948.84 588.52 933.71 583.23
  C 916.30 577.14 899.04 572.85 881.19 569.46
  C 875.88 568.46 870.65 568.77 865.26 568.81
  Q 865.06 568.81 865.08 569.01
  Q 865.09 569.14 865.09 569.30
  Q 865.08 569.48 865.26 569.52
  C 880.87 573.29 897.07 576.62 912.03 581.62
  Q 927.56 586.82 942.79 592.85
  Z
  M 979.52 684.36
  Q 979.16 684.77 979.71 684.75
  L 1018.56 683.52
  Q 1019.31 683.50 1019.72 682.87
  C 1024.83 674.97 1028.93 665.37 1029.13 655.67
  C 1029.34 645.23 1023.74 636.23 1016.49 628.91
  C 1015.43 627.84 1014.93 627.96 1013.49 627.97
  Q 1003.20 628.04 996.25 628.63
  Q 995.68 628.67 995.97 629.16
  Q 999.55 635.25 1000.65 642.21
  C 1001.05 644.66 1000.62 646.94 1000.39 649.44
  C 999.66 657.47 994.04 666.69 989.13 672.94
  Q 985.27 677.86 979.52 684.36
  Z
  M 821.29 858.07
  C 816.93 865.15 813.29 872.69 809.53 880.10
  C 804.85 889.34 801.14 898.89 797.27 908.56
  C 793.96 916.84 791.70 925.57 789.09 934.15
  A 0.58 0.58 0.0 0 0 789.66 934.90
  L 866.45 932.92
  Q 867.46 932.89 867.61 931.89
  C 868.87 923.07 869.94 914.62 872.26 905.86
  C 874.48 897.44 876.30 889.03 879.29 880.84
  C 882.35 872.46 885.08 864.13 888.83 856.05
  C 892.13 848.92 895.14 841.67 899.04 834.80
  C 903.00 827.83 906.81 820.70 911.06 814.16
  C 915.54 807.24 920.07 800.09 924.72 793.63
  Q 938.09 775.06 953.09 757.46
  A 0.23 0.22 19.6 0 0 952.91 757.09
  Q 929.24 757.40 905.50 758.16
  Q 904.19 758.20 903.42 758.92
  C 881.86 779.06 860.43 801.64 842.74 825.99
  C 838.01 832.51 833.22 838.96 828.94 845.78
  Q 825.09 851.91 821.29 858.07
  Z"
/>
<path fill="#3e8bc8" d="
  M 942.79 592.85
  Q 927.56 586.82 912.03 581.62
  C 897.07 576.62 880.87 573.29 865.26 569.52
  Q 865.08 569.48 865.09 569.30
  Q 865.09 569.14 865.08 569.01
  Q 865.06 568.81 865.26 568.81
  C 870.65 568.77 875.88 568.46 881.19 569.46
  C 899.04 572.85 916.30 577.14 933.71 583.23
  Q 948.84 588.52 963.73 593.77
  Q 964.89 594.18 963.67 594.19
  C 957.44 594.28 948.69 595.19 942.79 592.85
  Z"
/>
<path fill="#3e8bc8" d="
  M 979.52 684.36
  Q 985.27 677.86 989.13 672.94
  C 994.04 666.69 999.66 657.47 1000.39 649.44
  C 1000.62 646.94 1001.05 644.66 1000.65 642.21
  Q 999.55 635.25 995.97 629.16
  Q 995.68 628.67 996.25 628.63
  Q 1003.20 628.04 1013.49 627.97
  C 1014.93 627.96 1015.43 627.84 1016.49 628.91
  C 1023.74 636.23 1029.34 645.23 1029.13 655.67
  C 1028.93 665.37 1024.83 674.97 1019.72 682.87
  Q 1019.31 683.50 1018.56 683.52
  L 979.71 684.75
  Q 979.16 684.77 979.52 684.36
  Z"
/>
<path fill="#3e8bc8" d="
  M 821.29 858.07
  Q 825.09 851.91 828.94 845.78
  C 833.22 838.96 838.01 832.51 842.74 825.99
  C 860.43 801.64 881.86 779.06 903.42 758.92
  Q 904.19 758.20 905.50 758.16
  Q 929.24 757.40 952.91 757.09
  A 0.23 0.22 19.6 0 1 953.09 757.46
  Q 938.09 775.06 924.72 793.63
  C 920.07 800.09 915.54 807.24 911.06 814.16
  C 906.81 820.70 903.00 827.83 899.04 834.80
  C 895.14 841.67 892.13 848.92 888.83 856.05
  C 885.08 864.13 882.35 872.46 879.29 880.84
  C 876.30 889.03 874.48 897.44 872.26 905.86
  C 869.94 914.62 868.87 923.07 867.61 931.89
  Q 867.46 932.89 866.45 932.92
  L 789.66 934.90
  A 0.58 0.58 0.0 0 1 789.09 934.15
  C 791.70 925.57 793.96 916.84 797.27 908.56
  C 801.14 898.89 804.85 889.34 809.53 880.10
  C 813.29 872.69 816.93 865.15 821.29 858.07
  Z"
/>
<path fill="#0071bc" d="
  M 1713.00 915.08
  L 1713.00 1223.00
  L 0.00 1223.00
  L 0.00 973.77
  L 30.39 977.39
  Q 31.14 977.48 30.83 976.79
  L 0.00 906.99
  L 0.00 901.62
  L 75.15 980.40
  A 0.31 0.31 0.0 0 0 75.68 980.22
  L 84.19 904.40
  Q 84.42 902.28 84.85 904.37
  L 98.80 972.46
  Q 99.10 973.95 99.85 972.63
  L 157.28 871.05
  Q 157.56 870.55 157.68 871.11
  Q 157.73 871.38 157.69 871.75
  Q 151.21 928.37 144.74 984.86
  A 0.40 0.40 0.0 0 0 145.26 985.28
  L 211.01 962.82
  Q 212.26 962.39 211.40 963.40
  L 185.12 994.40
  A 0.28 0.28 0.0 0 0 185.30 994.86
  C 286.24 1005.68 387.62 1013.72 489.15 1016.67
  Q 489.92 1016.69 489.36 1016.17
  L 450.40 979.40
  Q 448.90 977.99 450.73 978.94
  L 501.90 1005.61
  Q 502.53 1005.94 502.24 1005.29
  L 466.82 926.25
  Q 466.04 924.51 467.42 925.82
  L 511.66 967.77
  L 533.05 988.04
  Q 533.46 988.43 533.68 987.91
  L 552.86 943.97
  Q 553.48 942.55 553.81 944.06
  L 567.60 1006.46
  Q 567.68 1006.80 567.97 1006.61
  L 610.03 980.35
  Q 610.69 979.94 610.68 980.72
  L 610.23 1017.48
  A 0.37 0.36 0.8 0 0 610.60 1017.85
  C 766.90 1016.23 923.16 1005.59 1078.96 993.57
  Q 1079.54 993.53 1079.04 993.22
  L 1037.29 967.88
  Q 1035.88 967.03 1037.48 967.42
  Q 1082.03 978.44 1127.24 989.60
  Q 1129.27 990.10 1131.83 989.53
  Q 1132.34 989.42 1132.03 988.99
  L 1085.44 926.08
  Q 1084.27 924.49 1085.91 925.60
  L 1155.02 972.22
  A 0.29 0.28 -64.8 0 0 1155.45 972.06
  L 1164.64 938.95
  L 1173.65 906.27
  Q 1173.95 905.17 1174.26 906.27
  L 1190.92 966.95
  A 0.42 0.42 0.0 0 0 1191.59 967.17
  L 1233.52 933.83
  Q 1234.37 933.15 1234.21 934.23
  L 1228.02 976.52
  A 0.36 0.35 83.5 0 0 1228.50 976.91
  L 1304.98 946.73
  Q 1306.67 946.06 1305.31 947.27
  L 1270.29 978.33
  Q 1269.58 978.96 1270.52 978.89
  L 1461.05 964.03
  A 0.30 0.30 0.0 0 0 1461.17 963.47
  L 1407.01 935.16
  Q 1404.63 933.91 1407.27 934.39
  Q 1471.36 945.94 1535.92 957.56
  C 1538.96 958.10 1541.49 958.19 1544.38 957.90
  Q 1544.95 957.84 1544.58 957.41
  L 1470.90 870.10
  Q 1469.81 868.80 1471.28 869.66
  L 1575.07 930.38
  A 0.37 0.37 0.0 0 0 1575.62 930.14
  L 1595.66 834.03
  Q 1595.88 832.97 1596.24 833.99
  L 1625.82 919.78
  A 0.44 0.44 0.0 0 0 1626.53 919.97
  L 1683.83 867.99
  Q 1684.59 867.30 1684.51 868.32
  L 1679.48 930.23
  A 0.30 0.30 0.0 0 0 1679.91 930.53
  L 1713.00 915.08
  Z"
/>
<path fill="#3e8bc8" d="
  M 0.00 906.99
  L 30.83 976.79
  Q 31.14 977.48 30.39 977.39
  L 0.00 973.77
  L 0.00 906.99
  Z"
/>
</svg>
