<?xml version="1.0" encoding="UTF-8" standalone="no"?>
<!DOCTYPE svg PUBLIC "-//W3C//DTD SVG 1.1//EN" "http://www.w3.org/Graphics/SVG/1.1/DTD/svg11.dtd">
<svg xmlns="http://www.w3.org/2000/svg" version="1.1" viewBox="0.00 0.00 704.00 264.00">
<path fill="#79838b" fill-opacity="0.600" d="
  M 704.00 161.88
  L 704.00 169.48
  Q 703.53 177.52 700.89 184.12
  C 694.91 199.05 679.49 199.56 666.00 200.99
  Q 664.28 201.17 660.03 202.98
  Q 659.07 202.32 657.58 202.75
  Q 657.39 202.80 657.39 203.00
  Q 657.39 203.17 657.37 203.34
  Q 657.36 203.55 657.16 203.63
  L 654.56 204.68
  Q 654.33 204.77 654.39 204.53
  Q 654.45 204.31 654.76 204.26
  Q 655.22 204.18 655.13 203.71
  Q 654.89 202.60 653.76 202.63
  Q 653.23 202.65 653.38 202.13
  Q 653.72 200.93 653.07 199.89
  A 0.17 0.17 0.0 0 0 652.75 199.97
  Q 652.75 200.13 652.82 200.28
  Q 653.02 200.71 652.75 200.46
  L 651.43 199.26
  A 0.19 0.19 0.0 0 0 651.13 199.48
  Q 651.20 199.63 651.27 199.78
  Q 651.32 199.88 651.21 199.88
  L 650.25 199.88
  Q 650.15 199.88 650.21 199.80
  Q 650.29 199.71 650.27 199.55
  Q 650.26 199.44 650.14 199.41
  Q 649.44 199.27 648.73 199.38
  A 0.53 0.53 0.0 0 1 648.12 198.84
  Q 648.14 198.12 647.55 197.90
  Q 647.17 197.77 647.14 197.37
  Q 646.97 195.49 645.16 195.65
  Q 644.57 195.71 644.63 195.12
  Q 644.65 194.92 644.61 194.75
  Q 644.51 194.37 644.12 194.27
  Q 638.81 192.93 634.89 194.39
  Q 632.51 195.28 628.85 197.56
  Q 626.46 199.06 624.03 201.88
  Q 621.26 205.10 618.13 207.98
  C 616.92 209.09 616.37 210.74 615.07 211.99
  Q 611.69 215.20 608.38 218.48
  C 606.63 220.21 604.26 221.35 603.56 224.39
  C 603.09 226.40 604.49 228.60 605.37 230.40
  Q 605.61 230.88 606.12 231.02
  Q 606.77 231.20 607.46 231.12
  Q 607.88 231.07 607.88 231.49
  L 607.88 232.23
  Q 607.88 232.68 608.24 232.96
  C 613.67 237.20 620.80 236.61 626.37 232.90
  Q 628.13 231.72 630.31 232.20
  Q 630.84 232.31 630.82 232.86
  Q 630.81 233.31 630.96 233.62
  Q 631.06 233.81 630.89 233.94
  Q 630.53 234.19 630.61 234.64
  Q 630.72 235.18 630.19 235.31
  Q 629.37 235.51 629.65 236.50
  Q 629.76 236.87 630.52 236.95
  Q 621.50 243.44 610.24 244.48
  C 590.51 246.29 570.26 242.85 554.54 230.45
  Q 543.83 222.00 536.98 216.71
  Q 530.98 212.08 526.98 210.64
  C 517.79 207.33 505.33 208.33 496.51 209.38
  Q 476.60 211.75 456.73 214.50
  C 438.31 217.05 419.72 218.62 401.22 215.91
  Q 387.79 213.93 387.74 213.93
  C 357.33 210.53 327.65 212.50 297.26 214.28
  L 291.91 213.30
  Q 291.89 213.30 291.89 213.32
  Q 291.88 213.33 291.88 213.33
  Q 291.87 213.37 291.90 213.37
  Q 292.02 213.39 292.16 213.39
  Q 292.30 213.39 292.37 213.26
  Q 292.79 212.50 292.49 211.95
  Q 292.17 211.36 292.80 211.13
  Q 294.18 210.61 294.12 209.13
  A 0.72 0.72 0.0 0 1 294.51 208.46
  L 296.26 207.52
  Q 296.79 207.24 296.44 206.75
  Q 295.62 205.63 295.35 204.28
  Q 295.24 203.73 294.76 203.44
  C 290.88 201.10 286.56 198.17 282.02 198.64
  Q 279.97 198.85 278.47 198.31
  Q 276.53 197.61 276.48 197.59
  C 272.60 196.58 269.49 194.82 265.50 194.86
  Q 259.46 194.93 253.51 195.94
  Q 249.33 196.65 248.04 198.04
  Q 246.44 199.77 244.39 200.85
  C 242.84 201.67 240.82 201.18 239.49 201.88
  Q 236.93 203.24 234.25 204.36
  C 231.28 205.60 230.09 207.27 228.73 209.95
  A 1.73 1.68 89.2 0 1 228.07 210.65
  Q 225.44 212.20 224.46 214.92
  C 223.95 216.32 224.56 217.71 224.08 219.35
  Q 224.07 219.36 224.09 219.37
  Q 224.09 219.37 224.10 219.37
  Q 224.11 219.38 224.12 219.35
  Q 224.20 218.93 224.10 218.48
  Q 223.96 217.90 223.73 218.46
  Q 222.44 221.60 222.29 225.01
  Q 222.28 225.45 222.49 225.85
  Q 223.68 228.04 223.92 230.51
  A 1.19 1.17 10.3 0 0 224.60 231.47
  Q 226.69 232.42 228.21 234.15
  Q 228.46 234.43 228.56 234.80
  C 228.95 236.31 230.81 236.36 230.78 238.26
  Q 230.77 238.81 231.03 239.29
  L 232.19 241.43
  Q 232.46 241.93 232.99 241.71
  Q 233.73 241.40 234.22 241.96
  Q 234.60 242.39 234.60 242.96
  Q 234.63 245.15 235.46 247.18
  A 0.16 0.16 0.0 0 1 235.28 247.39
  Q 235.04 247.33 234.84 247.44
  Q 234.57 247.60 234.60 247.91
  L 234.82 250.11
  Q 225.33 263.24 208.88 264.00
  L 198.14 264.00
  Q 168.84 262.86 154.78 238.80
  Q 149.88 230.43 144.68 222.28
  Q 138.74 212.97 127.77 211.50
  Q 119.92 210.44 94.25 210.21
  C 77.79 210.05 62.56 204.99 46.36 198.50
  C 16.25 186.42 3.62 155.69 1.30 125.49
  Q 0.44 114.34 0.00 103.12
  L 0.00 92.00
  C 1.07 66.31 5.01 34.34 33.89 24.76
  Q 80.14 9.42 127.50 7.78
  Q 147.45 7.08 173.00 8.15
  Q 209.75 9.68 246.50 11.23
  Q 319.61 14.31 392.75 12.42
  Q 442.94 11.13 492.60 3.96
  Q 507.07 1.87 512.44 1.49
  C 534.32 -0.09 556.32 3.01 577.75 7.30
  C 592.26 10.20 611.47 15.45 621.85 25.38
  C 629.76 32.94 631.79 42.41 631.06 52.99
  C 629.93 69.49 628.07 84.53 641.71 96.79
  C 650.37 104.58 660.41 107.09 671.49 109.35
  C 686.55 112.41 695.28 120.01 699.47 135.01
  Q 703.14 148.15 704.00 161.88
  Z"
/>
<path fill="#6a7485" fill-opacity="0.600" d="
  M 660.03 202.98
  Q 653.57 206.65 649.40 212.88
  C 643.76 221.30 638.81 230.38 630.52 236.95
  Q 629.76 236.87 629.65 236.50
  Q 629.37 235.51 630.19 235.31
  Q 630.72 235.18 630.61 234.64
  Q 630.53 234.19 630.89 233.94
  Q 631.06 233.81 630.96 233.62
  Q 630.81 233.31 630.82 232.86
  Q 630.84 232.31 630.31 232.20
  Q 628.13 231.72 626.37 232.90
  C 620.80 236.61 613.67 237.20 608.24 232.96
  Q 607.88 232.68 607.88 232.23
  L 607.88 231.49
  Q 607.88 231.07 607.46 231.12
  Q 606.77 231.20 606.12 231.02
  Q 605.61 230.88 605.37 230.40
  C 604.49 228.60 603.09 226.40 603.56 224.39
  C 604.26 221.35 606.63 220.21 608.38 218.48
  Q 611.69 215.20 615.07 211.99
  C 616.37 210.74 616.92 209.09 618.13 207.98
  Q 621.26 205.10 624.03 201.88
  Q 626.46 199.06 628.85 197.56
  Q 632.51 195.28 634.89 194.39
  Q 638.81 192.93 644.12 194.27
  Q 644.51 194.37 644.61 194.75
  Q 644.65 194.92 644.63 195.12
  Q 644.57 195.71 645.16 195.65
  Q 646.97 195.49 647.14 197.37
  Q 647.17 197.77 647.55 197.90
  Q 648.14 198.12 648.12 198.84
  A 0.53 0.53 0.0 0 0 648.73 199.38
  Q 649.44 199.27 650.14 199.41
  Q 650.26 199.44 650.27 199.55
  Q 650.29 199.71 650.21 199.80
  Q 650.15 199.88 650.25 199.88
  L 651.21 199.88
  Q 651.32 199.88 651.27 199.78
  Q 651.20 199.63 651.13 199.48
  A 0.19 0.19 0.0 0 1 651.43 199.26
  L 652.75 200.46
  Q 653.02 200.71 652.82 200.28
  Q 652.75 200.13 652.75 199.97
  A 0.17 0.17 0.0 0 1 653.07 199.89
  Q 653.72 200.93 653.38 202.13
  Q 653.23 202.65 653.76 202.63
  Q 654.89 202.60 655.13 203.71
  Q 655.22 204.18 654.76 204.26
  Q 654.45 204.31 654.39 204.53
  Q 654.33 204.77 654.56 204.68
  L 657.16 203.63
  Q 657.36 203.55 657.37 203.34
  Q 657.39 203.17 657.39 203.00
  Q 657.39 202.80 657.58 202.75
  Q 659.07 202.32 660.03 202.98
  Z"
/>
<path fill="#6a7485" fill-opacity="0.600" d="
  M 297.26 214.28
  Q 288.60 214.58 279.99 214.66
  C 254.09 214.88 247.09 231.86 234.82 250.11
  L 234.60 247.91
  Q 234.57 247.60 234.84 247.44
  Q 235.04 247.33 235.28 247.39
  A 0.16 0.16 0.0 0 0 235.46 247.18
  Q 234.63 245.15 234.60 242.96
  Q 234.60 242.39 234.22 241.96
  Q 233.73 241.40 232.99 241.71
  Q 232.46 241.93 232.19 241.43
  L 231.03 239.29
  Q 230.77 238.81 230.78 238.26
  C 230.81 236.36 228.95 236.31 228.56 234.80
  Q 228.46 234.43 228.21 234.15
  Q 226.69 232.42 224.60 231.47
  A 1.19 1.17 10.3 0 1 223.92 230.51
  Q 223.68 228.04 222.49 225.85
  Q 222.28 225.45 222.29 225.01
  Q 222.44 221.60 223.73 218.46
  Q 223.96 217.90 224.10 218.48
  Q 224.20 218.93 224.12 219.35
  Q 224.11 219.38 224.10 219.37
  Q 224.09 219.37 224.09 219.37
  Q 224.07 219.36 224.08 219.35
  C 224.56 217.71 223.95 216.32 224.46 214.92
  Q 225.44 212.20 228.07 210.65
  A 1.73 1.68 89.2 0 0 228.73 209.95
  C 230.09 207.27 231.28 205.60 234.25 204.36
  Q 236.93 203.24 239.49 201.88
  C 240.82 201.18 242.84 201.67 244.39 200.85
  Q 246.44 199.77 248.04 198.04
  Q 249.33 196.65 253.51 195.94
  Q 259.46 194.93 265.50 194.86
  C 269.49 194.82 272.60 196.58 276.48 197.59
  Q 276.53 197.61 278.47 198.31
  Q 279.97 198.85 282.02 198.64
  C 286.56 198.17 290.88 201.10 294.76 203.44
  Q 295.24 203.73 295.35 204.28
  Q 295.62 205.63 296.44 206.75
  Q 296.79 207.24 296.26 207.52
  L 294.51 208.46
  A 0.72 0.72 0.0 0 0 294.12 209.13
  Q 294.18 210.61 292.80 211.13
  Q 292.17 211.36 292.49 211.95
  Q 292.79 212.50 292.37 213.26
  Q 292.30 213.39 292.16 213.39
  Q 292.02 213.39 291.90 213.37
  Q 291.87 213.37 291.88 213.33
  Q 291.88 213.33 291.89 213.32
  Q 291.89 213.30 291.91 213.30
  L 297.26 214.28
  Z"
/>
</svg>
