<?xml version="1.0" encoding="UTF-8" standalone="no"?>
<!DOCTYPE svg PUBLIC "-//W3C//DTD SVG 1.1//EN" "http://www.w3.org/Graphics/SVG/1.1/DTD/svg11.dtd">
<svg xmlns="http://www.w3.org/2000/svg" version="1.1" viewBox="0.00 0.00 679.00 261.00">
<path fill="#79838b" fill-opacity="0.600" d="
  M 229.87 0.00
  L 244.01 0.00
  Q 284.63 0.93 324.47 8.93
  Q 348.79 13.82 373.01 19.16
  Q 387.48 22.35 397.75 22.99
  Q 454.35 26.50 512.99 16.28
  C 532.06 12.95 550.98 9.00 570.26 7.10
  C 598.73 4.28 626.30 8.63 653.21 17.90
  C 679.55 26.98 678.78 63.12 677.64 85.25
  Q 676.83 101.15 675.74 117.04
  Q 675.60 119.18 675.69 120.95
  C 676.29 131.77 677.78 142.59 679.00 153.36
  L 679.00 187.00
  Q 678.82 187.17 678.65 187.34
  Q 677.95 185.55 678.09 181.75
  Q 678.34 175.23 677.55 157.25
  Q 677.53 156.69 677.06 156.99
  Q 676.52 157.33 676.01 156.89
  A 0.98 0.98 0.0 0 0 675.33 156.64
  C 673.49 156.66 671.79 156.24 670.04 156.66
  Q 667.68 157.22 665.39 158.03
  C 662.58 159.02 657.08 158.82 657.35 163.16
  Q 657.41 164.07 656.99 164.50
  Q 656.81 164.68 656.81 164.93
  L 656.81 165.30
  Q 656.81 165.70 656.57 166.02
  Q 655.23 167.79 654.94 169.90
  A 2.05 0.94 -35.5 0 1 654.38 170.88
  Q 654.11 171.18 653.68 171.26
  Q 653.55 171.28 653.45 171.21
  Q 653.24 171.08 653.01 171.14
  A 2.72 0.83 -16.4 0 0 650.59 172.73
  Q 650.89 173.56 650.26 173.77
  A 0.83 0.83 0.0 0 0 649.68 174.55
  Q 649.63 176.21 647.98 176.08
  A 0.47 0.46 5.1 0 0 647.48 176.49
  Q 647.41 177.19 646.97 177.35
  Q 646.59 177.49 646.89 177.76
  Q 647.33 178.15 646.89 178.23
  A 0.50 0.50 0.0 0 0 646.47 178.69
  L 646.16 183.60
  Q 646.14 184.00 645.87 184.29
  Q 645.20 185.03 645.37 186.08
  Q 645.46 186.66 645.15 187.15
  Q 644.60 188.06 643.82 188.82
  C 642.78 189.83 641.49 189.88 640.12 190.30
  C 638.33 190.84 636.58 192.86 635.11 194.06
  Q 634.00 194.98 631.53 196.02
  Q 629.60 196.83 627.99 198.24
  Q 626.81 199.27 621.90 201.15
  C 620.23 201.79 618.72 203.04 616.64 203.40
  A 1.06 1.04 -78.7 0 0 615.93 203.88
  Q 615.52 204.53 614.84 204.84
  Q 612.49 205.90 610.12 206.94
  C 607.78 207.96 606.93 210.02 605.10 211.09
  Q 601.94 212.95 599.40 215.61
  C 598.70 216.35 597.51 216.79 597.20 218.18
  Q 597.10 218.65 596.68 218.89
  Q 595.64 219.48 594.86 220.36
  Q 594.58 220.68 594.17 220.81
  Q 593.47 221.04 593.06 221.56
  Q 592.78 221.93 592.36 222.11
  C 590.01 223.10 588.29 224.69 585.90 225.42
  Q 584.10 225.97 582.34 226.62
  Q 581.88 226.79 581.88 227.28
  L 581.88 227.75
  Q 581.88 228.13 581.50 228.13
  L 579.98 228.13
  A 0.86 0.85 -83.6 0 0 579.15 228.80
  Q 578.96 229.66 578.29 230.33
  A 3.38 2.53 45.9 0 0 578.82 234.44
  Q 579.58 235.25 579.87 236.69
  C 580.10 237.84 580.63 238.53 580.97 239.60
  A 1.91 1.86 17.6 0 0 581.33 240.27
  Q 582.49 241.70 583.63 243.17
  C 585.73 245.86 591.52 246.48 594.51 246.31
  Q 595.80 246.24 597.26 245.33
  Q 597.72 245.04 598.15 245.36
  Q 599.09 246.04 599.08 247.34
  A 0.44 0.44 0.0 0 0 599.84 247.65
  Q 600.41 247.05 600.97 247.95
  A 0.62 0.62 0.0 0 0 602.02 247.95
  Q 602.38 247.37 602.39 246.73
  Q 602.39 246.34 602.78 246.38
  Q 603.32 246.43 603.38 245.92
  A 0.56 0.56 0.0 0 1 603.74 245.46
  Q 605.06 244.92 606.40 245.07
  Q 606.86 245.12 606.91 244.66
  Q 607.00 243.92 607.49 243.53
  C 608.61 242.63 609.50 241.69 610.94 241.16
  A 0.67 0.66 71.7 0 1 611.81 241.60
  Q 611.99 242.21 611.84 242.90
  A 0.32 0.32 0.0 0 0 612.01 243.25
  Q 612.14 243.32 612.27 243.38
  Q 612.73 243.61 612.72 243.09
  Q 612.70 242.63 612.85 242.19
  Q 613.03 241.64 613.53 241.94
  Q 613.72 242.05 613.81 242.31
  Q 613.96 242.73 613.65 243.06
  L 611.26 245.62
  A 0.48 0.46 -55.5 0 1 610.71 245.73
  Q 610.25 245.50 609.76 245.69
  Q 609.11 245.94 609.78 246.14
  L 611.30 246.60
  C 600.21 253.17 584.11 255.13 571.87 251.66
  C 558.65 247.92 549.22 238.17 539.30 229.21
  C 533.77 224.21 529.65 223.67 525.14 230.18
  C 516.89 242.06 509.75 255.02 493.51 256.68
  C 482.87 257.77 462.64 256.59 455.78 246.47
  C 452.64 241.83 449.37 236.55 445.47 233.01
  C 436.61 224.97 423.57 221.63 411.98 219.90
  C 382.96 215.56 352.83 217.64 323.27 215.42
  C 288.36 212.80 251.76 202.77 219.88 200.58
  C 203.05 199.42 185.08 201.29 169.81 209.24
  C 167.32 210.53 165.82 212.23 164.95 214.74
  C 160.91 226.32 157.70 236.38 147.42 243.13
  C 135.83 250.75 117.54 251.40 103.88 248.42
  C 89.90 245.38 81.25 237.83 74.65 225.40
  C 70.65 217.85 67.10 209.16 59.61 204.76
  C 56.54 202.96 52.20 202.78 48.51 201.95
  C 26.31 196.93 22.29 175.27 21.02 156.12
  Q 19.87 138.67 18.48 121.25
  Q 16.92 101.84 9.00 79.12
  C 4.77 66.98 1.34 57.93 0.00 48.13
  L 0.00 43.52
  C 1.23 35.06 5.52 28.88 11.63 22.64
  C 23.45 10.58 37.70 8.74 54.24 9.68
  Q 70.99 10.64 87.76 11.25
  Q 123.22 12.55 152.75 7.99
  Q 184.64 3.07 203.62 1.33
  Q 209.50 0.79 229.87 0.00
  Z"
/>
<path fill="#6a7485" fill-opacity="0.600" d="
  M 678.65 187.34
  Q 678.17 193.85 674.45 199.76
  C 668.87 208.61 660.75 206.64 651.63 207.13
  Q 635.34 207.99 628.57 222.57
  C 624.17 232.05 620.49 240.77 611.30 246.60
  L 609.78 246.14
  Q 609.11 245.94 609.76 245.69
  Q 610.25 245.50 610.71 245.73
  A 0.48 0.46 -55.5 0 0 611.26 245.62
  L 613.65 243.06
  Q 613.96 242.73 613.81 242.31
  Q 613.72 242.05 613.53 241.94
  Q 613.03 241.64 612.85 242.19
  Q 612.70 242.63 612.72 243.09
  Q 612.73 243.61 612.27 243.38
  Q 612.14 243.32 612.01 243.25
  A 0.32 0.32 0.0 0 1 611.84 242.90
  Q 611.99 242.21 611.81 241.60
  A 0.67 0.66 71.7 0 0 610.94 241.16
  C 609.50 241.69 608.61 242.63 607.49 243.53
  Q 607.00 243.92 606.91 244.66
  Q 606.86 245.12 606.40 245.07
  Q 605.06 244.92 603.74 245.46
  A 0.56 0.56 0.0 0 0 603.38 245.92
  Q 603.32 246.43 602.78 246.38
  Q 602.39 246.34 602.39 246.73
  Q 602.38 247.37 602.02 247.95
  A 0.62 0.62 0.0 0 1 600.97 247.95
  Q 600.41 247.05 599.84 247.65
  A 0.44 0.44 0.0 0 1 599.08 247.34
  Q 599.09 246.04 598.15 245.36
  Q 597.72 245.04 597.26 245.33
  Q 595.80 246.24 594.51 246.31
  C 591.52 246.48 585.73 245.86 583.63 243.17
  Q 582.49 241.70 581.33 240.27
  A 1.91 1.86 17.6 0 1 580.97 239.60
  C 580.63 238.53 580.10 237.84 579.87 236.69
  Q 579.58 235.25 578.82 234.44
  A 3.38 2.53 45.9 0 1 578.29 230.33
  Q 578.96 229.66 579.15 228.80
  A 0.86 0.85 -83.6 0 1 579.98 228.13
  L 581.50 228.13
  Q 581.88 228.13 581.88 227.75
  L 581.88 227.28
  Q 581.88 226.79 582.34 226.62
  Q 584.10 225.97 585.90 225.42
  C 588.29 224.69 590.01 223.10 592.36 222.11
  Q 592.78 221.93 593.06 221.56
  Q 593.47 221.04 594.17 220.81
  Q 594.58 220.68 594.86 220.36
  Q 595.64 219.48 596.68 218.89
  Q 597.10 218.65 597.20 218.18
  C 597.51 216.79 598.70 216.35 599.40 215.61
  Q 601.94 212.95 605.10 211.09
  C 606.93 210.02 607.78 207.96 610.12 206.94
  Q 612.49 205.90 614.84 204.84
  Q 615.52 204.53 615.93 203.88
  A 1.06 1.04 -78.7 0 1 616.64 203.40
  C 618.72 203.04 620.23 201.79 621.90 201.15
  Q 626.81 199.27 627.99 198.24
  Q 629.60 196.83 631.53 196.02
  Q 634.00 194.98 635.11 194.06
  C 636.58 192.86 638.33 190.84 640.12 190.30
  C 641.49 189.88 642.78 189.83 643.82 188.82
  Q 644.60 188.06 645.15 187.15
  Q 645.46 186.66 645.37 186.08
  Q 645.20 185.03 645.87 184.29
  Q 646.14 184.00 646.16 183.60
  L 646.47 178.69
  A 0.50 0.50 0.0 0 1 646.89 178.23
  Q 647.33 178.15 646.89 177.76
  Q 646.59 177.49 646.97 177.35
  Q 647.41 177.19 647.48 176.49
  A 0.47 0.46 5.1 0 1 647.98 176.08
  Q 649.63 176.21 649.68 174.55
  A 0.83 0.83 0.0 0 1 650.26 173.77
  Q 650.89 173.56 650.59 172.73
  A 2.72 0.83 -16.4 0 1 653.01 171.14
  Q 653.24 171.08 653.45 171.21
  Q 653.55 171.28 653.68 171.26
  Q 654.11 171.18 654.38 170.88
  A 2.05 0.94 -35.5 0 0 654.94 169.90
  Q 655.23 167.79 656.57 166.02
  Q 656.81 165.70 656.81 165.30
  L 656.81 164.93
  Q 656.81 164.68 656.99 164.50
  Q 657.41 164.07 657.35 163.16
  C 657.08 158.82 662.58 159.02 665.39 158.03
  Q 667.68 157.22 670.04 156.66
  C 671.79 156.24 673.49 156.66 675.33 156.64
  A 0.98 0.98 0.0 0 1 676.01 156.89
  Q 676.52 157.33 677.06 156.99
  Q 677.53 156.69 677.55 157.25
  Q 678.34 175.23 678.09 181.75
  Q 677.95 185.55 678.65 187.34
  Z"
/>
</svg>
